<svg width="136" height="46" viewBox="0 0 136 46" fill="none" xmlns="http://www.w3.org/2000/svg">
<g filter="url(#filter0_d)">
<rect x="8" y="4" width="120" height="30" rx="6" fill="#3B5999"/>
</g>
<path d="M55.4385 19.7822H51.4326V24H49.7031V14.0469H56.0264V15.4414H51.4326V18.4014H55.4385V19.7822ZM61.6592 21.6826H57.8037L56.9971 24H55.1992L58.959 14.0469H60.5107L64.2773 24H62.4727L61.6592 21.6826ZM58.2891 20.2881H61.1738L59.7314 16.1592L58.2891 20.2881ZM72.8564 20.7598C72.7562 21.8216 72.3643 22.651 71.6807 23.248C70.9971 23.8405 70.0879 24.1367 68.9531 24.1367C68.1602 24.1367 67.4606 23.9499 66.8545 23.5762C66.2529 23.1979 65.7881 22.6624 65.46 21.9697C65.1318 21.277 64.9609 20.4727 64.9473 19.5566V18.627C64.9473 17.6882 65.1136 16.861 65.4463 16.1455C65.779 15.43 66.2552 14.8786 66.875 14.4912C67.4993 14.1038 68.2194 13.9102 69.0352 13.9102C70.1335 13.9102 71.0176 14.2087 71.6875 14.8057C72.3574 15.4027 72.7471 16.2458 72.8564 17.335H71.1338C71.0518 16.6195 70.8421 16.1045 70.5049 15.79C70.1722 15.471 69.6823 15.3115 69.0352 15.3115C68.2832 15.3115 67.7044 15.5872 67.2988 16.1387C66.8978 16.6855 66.6927 17.4899 66.6836 18.5518V19.4336C66.6836 20.5091 66.875 21.3294 67.2578 21.8945C67.6452 22.4596 68.2103 22.7422 68.9531 22.7422C69.6322 22.7422 70.1426 22.5895 70.4844 22.2842C70.8262 21.9788 71.0426 21.4707 71.1338 20.7598H72.8564ZM80.2256 19.5566H76.1377V22.6191H80.916V24H74.4082V14.0469H80.8682V15.4414H76.1377V18.1895H80.2256V19.5566ZM82.3242 24V14.0469H85.7354C86.861 14.0469 87.7178 14.2725 88.3057 14.7236C88.8936 15.1748 89.1875 15.847 89.1875 16.7402C89.1875 17.196 89.0645 17.6061 88.8184 17.9707C88.5723 18.3353 88.2122 18.6178 87.7383 18.8184C88.276 18.9642 88.6908 19.2399 88.9824 19.6455C89.2786 20.0465 89.4268 20.5296 89.4268 21.0947C89.4268 22.029 89.126 22.7467 88.5244 23.248C87.9274 23.7493 87.0706 24 85.9541 24H82.3242ZM84.0537 19.5088V22.6191H85.9746C86.5169 22.6191 86.9408 22.4847 87.2461 22.2158C87.5514 21.9469 87.7041 21.5732 87.7041 21.0947C87.7041 20.0602 87.1755 19.5316 86.1182 19.5088H84.0537ZM84.0537 18.2373H85.749C86.2868 18.2373 86.7061 18.1165 87.0068 17.875C87.3122 17.6289 87.4648 17.2826 87.4648 16.8359C87.4648 16.3438 87.3236 15.9883 87.041 15.7695C86.763 15.5508 86.3278 15.4414 85.7354 15.4414H84.0537V18.2373ZM99.0996 19.2832C99.0996 20.2585 98.931 21.1152 98.5938 21.8535C98.2565 22.5872 97.7734 23.1523 97.1445 23.5488C96.5202 23.9408 95.8001 24.1367 94.9844 24.1367C94.1777 24.1367 93.4577 23.9408 92.8242 23.5488C92.1953 23.1523 91.7077 22.5895 91.3613 21.8604C91.0195 21.1312 90.8464 20.2904 90.8418 19.3379V18.7773C90.8418 17.8066 91.0127 16.9499 91.3545 16.207C91.7008 15.4642 92.1862 14.8968 92.8105 14.5049C93.4395 14.1084 94.1595 13.9102 94.9707 13.9102C95.7819 13.9102 96.4997 14.1061 97.124 14.498C97.7529 14.8854 98.2383 15.446 98.5801 16.1797C98.9219 16.9089 99.0951 17.7588 99.0996 18.7295V19.2832ZM97.3701 18.7637C97.3701 17.6608 97.1605 16.8154 96.7412 16.2275C96.3265 15.6396 95.7363 15.3457 94.9707 15.3457C94.2233 15.3457 93.6377 15.6396 93.2139 16.2275C92.7946 16.8109 92.5804 17.638 92.5713 18.709V19.2832C92.5713 20.377 92.7832 21.2223 93.207 21.8193C93.6354 22.4163 94.2279 22.7148 94.9844 22.7148C95.75 22.7148 96.3379 22.4232 96.748 21.8398C97.1628 21.2565 97.3701 20.4043 97.3701 19.2832V18.7637ZM108.766 19.2832C108.766 20.2585 108.597 21.1152 108.26 21.8535C107.923 22.5872 107.439 23.1523 106.811 23.5488C106.186 23.9408 105.466 24.1367 104.65 24.1367C103.844 24.1367 103.124 23.9408 102.49 23.5488C101.861 23.1523 101.374 22.5895 101.027 21.8604C100.686 21.1312 100.512 20.2904 100.508 19.3379V18.7773C100.508 17.8066 100.679 16.9499 101.021 16.207C101.367 15.4642 101.852 14.8968 102.477 14.5049C103.105 14.1084 103.826 13.9102 104.637 13.9102C105.448 13.9102 106.166 14.1061 106.79 14.498C107.419 14.8854 107.904 15.446 108.246 16.1797C108.588 16.9089 108.761 17.7588 108.766 18.7295V19.2832ZM107.036 18.7637C107.036 17.6608 106.826 16.8154 106.407 16.2275C105.993 15.6396 105.402 15.3457 104.637 15.3457C103.889 15.3457 103.304 15.6396 102.88 16.2275C102.461 16.8109 102.246 17.638 102.237 18.709V19.2832C102.237 20.377 102.449 21.2223 102.873 21.8193C103.301 22.4163 103.894 22.7148 104.65 22.7148C105.416 22.7148 106.004 22.4232 106.414 21.8398C106.829 21.2565 107.036 20.4043 107.036 19.2832V18.7637ZM113.346 19.7002L112.218 20.8965V24H110.488V14.0469H112.218V18.7158L113.175 17.5332L116.087 14.0469H118.179L114.48 18.4561L118.391 24H116.34L113.346 19.7002Z" fill="white"/>
<mask id="mask0" mask-type="alpha" maskUnits="userSpaceOnUse" x="20" y="9" width="10" height="20">
<path d="M30 9V13H28C27.31 13 27 13.81 27 14.5V17H30V21H27V29H23V21H20V17H23V13C23 11.9391 23.4214 10.9217 24.1716 10.1716C24.9217 9.42143 25.9391 9 27 9H30Z" fill="#5F5F5F"/>
</mask>
<g mask="url(#mask0)">
<rect x="8" y="4" width="34.2857" height="30" fill="white"/>
</g>
<defs>
<filter id="filter0_d" x="0" y="0" width="136" height="46" filterUnits="userSpaceOnUse" color-interpolation-filters="sRGB">
<feFlood flood-opacity="0" result="BackgroundImageFix"/>
<feColorMatrix in="SourceAlpha" type="matrix" values="0 0 0 0 0 0 0 0 0 0 0 0 0 0 0 0 0 0 127 0"/>
<feOffset dy="4"/>
<feGaussianBlur stdDeviation="4"/>
<feColorMatrix type="matrix" values="0 0 0 0 0.231373 0 0 0 0 0.34902 0 0 0 0 0.6 0 0 0 0.24 0"/>
<feBlend mode="multiply" in2="BackgroundImageFix" result="effect1_dropShadow"/>
<feBlend mode="normal" in="SourceGraphic" in2="effect1_dropShadow" result="shape"/>
</filter>
</defs>
</svg>
